<?xml version="1.0" encoding="UTF-8"?>
<svg width="79px" height="50px" viewBox="0 0 79 50" version="1.1" xmlns="http://www.w3.org/2000/svg" xmlns:xlink="http://www.w3.org/1999/xlink">
	<path
		d="M57.983558,11.9149132 L53.515291,11.9149132 L53.515291,7.61233589 C53.515291,5.77861424 51.9380328,4.38075857 50.1167788,4.38075857 L37.8273206,4.38075857 C36.9716126,4.38075809 36.1510018,4.7228223 35.5462437,5.33160485 C34.9414855,5.94038741 34.6021891,6.76594922 34.6030911,7.62644414 L34.6030911,11.9149132 L30.1398907,11.9149132 L30.1398907,7.61233589 C30.1348241,3.51530798 33.7337533,-0.00303792141 37.8273206,2.05933799e-06 C42.4586429,0.00365851671 45.5253084,0.00346881929 50.1167788,2.05933799e-06 C54.368217,-0.00301176146 57.983558,3.30234547 57.983558,7.62206269 L57.983558,11.9149132 Z M57.983558,38.0769882 L53.515291,38.0769882 L53.515291,42.3795656 C53.515291,44.2132872 51.9380328,45.6111429 50.1167788,45.6111429 L37.8273206,45.6111429 C36.9716126,45.6111434 36.1510018,45.2690792 35.5462437,44.6602966 C34.9414855,44.051514 34.6021891,43.2259522 34.6030911,42.3654573 L34.6030911,38.0769882 L30.1398907,38.0769882 L30.1398907,42.3795656 C30.1348241,46.4765935 33.7337533,49.9949394 37.8273206,49.9918994 C42.4586429,49.9882429 45.5253084,49.9884326 50.1167788,49.9918994 C54.368217,49.9949132 57.983558,46.689556 57.983558,42.3698388 L57.983558,38.0769882 Z"
		fill="#4574EB" />
	<path
		d="M8.67675107,16.2839448 C12.5734956,16.2839448 14.7037159,18.9187274 14.7037159,22.0752491 C14.7037159,25.2056839 12.5734956,27.8404665 8.67675107,27.8404665 L8.67675107,27.8404665 L4.46826702,27.8404665 L4.46826702,33.6839448 L0,33.6839448 L0,16.2839448 Z M8.07925025,20.1969882 L4.46826702,20.1969882 L4.46826702,23.927423 L8.07925025,23.927423 C9.27425189,23.927423 10.157514,23.2491622 10.157514,22.0752491 C10.157514,20.8752491 9.27425189,20.1969882 8.07925025,20.1969882 L8.07925025,20.1969882 Z M28.1344952,33.6839448 L28.1344952,29.7709013 L21.1723117,29.7709013 L21.1723117,16.2839448 L16.7040447,16.2839448 L16.7040447,33.6839448 L28.1344952,33.6839448 Z M34.6030911,33.6839448 L34.6030911,16.2839448 L30.1348241,16.2839448 L30.1348241,33.6839448 L34.6030911,33.6839448 Z M44.2929957,33.9969882 C48.9431108,33.9969882 51.5149622,31.6752491 51.5149622,28.1795969 C51.5149622,21.7100317 41.7211444,23.327423 41.7211444,21.1100317 C41.7211444,20.3795969 42.2926669,19.8578578 43.5915817,19.8578578 C45.3061493,19.8578578 47.2025649,20.4578578 48.6573496,21.6578578 L51.0993094,18.4491622 C49.2548504,16.8578578 46.8388688,16.0230752 44.0591911,16.0230752 C39.6169023,16.0230752 37.1489642,18.6317708 37.1489642,21.55351 C37.1489642,28.2578578 46.9687603,26.35351 46.9687603,28.727423 C46.9687603,29.5622056 46.0335416,30.1622056 44.5008221,30.1622056 C42.1367971,30.1622056 40.2144032,29.1187274 38.9674449,27.8665535 L36.6034199,31.2317708 C38.3439658,32.9013361 40.7859257,33.9969882 44.2929957,33.9969882 Z M57.983558,33.6839448 L57.983558,16.2839448 L53.515291,16.2839448 L53.515291,33.6839448 L57.983558,33.6839448 Z M69.2581388,15.9969882 C74.5577113,15.9969882 78.5064124,19.7013361 78.5064124,24.9969882 C78.5064124,30.2926404 74.5577113,33.9969882 69.2581388,33.9969882 C63.9585663,33.9969882 59.9838869,30.2926404 59.9838869,24.9969882 C59.9838869,19.7013361 63.9585663,15.9969882 69.2581388,15.9969882 Z M69.2581388,19.9622056 C66.3745478,19.9622056 64.5300888,22.15351 64.5300888,24.9969882 C64.5300888,27.8143795 66.3745478,30.0317708 69.2581388,30.0317708 C72.1157514,30.0317708 73.9602105,27.8143795 73.9602105,24.9969882 C73.9602105,22.15351 72.1157514,19.9622056 69.2581388,19.9622056 Z"
		fill="#FFFFFF" />
</svg>